<svg xmlns="http://www.w3.org/2000/svg" viewBox="0 0 548.57 59.91"><defs><style>.cls-1{fill:#ff4163;}</style></defs><title>black-pink-700</title><g id="Layer_2" data-name="Layer 2"><g id="Layer_1-2" data-name="Layer 1"><path d="M0,59.48c0-.72,6.91-.72,6.91-11.88V3.53A3,3,0,0,0,5.47,1.08V.79h6.19v.29a3,3,0,0,0-1.44,2.45V47.6c0,7.34-3.53,12.31-8.71,12.31C.58,59.91,0,59.69,0,59.48Z"/><path class="cls-1" d="M16.13,26.07C16.13,11.45,26.5,0,41.33,0S66.6,11.45,66.6,26.07s-10.37,26-25.27,26S16.13,40.61,16.13,26.07Zm47.16,0c0-13.25-9.14-22.9-22-22.9S19.44,13,19.44,26.07s9.22,22.83,21.89,22.83S63.29,39.39,63.29,26.07Z"/><path d="M70.34,50.91a3,3,0,0,0,1.44-2.45V3.53a3,3,0,0,0-1.44-2.45V.79h6.19v.29A3,3,0,0,0,75.1,3.53V48h22a2.4,2.4,0,0,0,2.45-1.37h.36l-.72,4.54H70.34Z"/><path d="M83.38,39.24a3,3,0,0,0,1.44-2.45V3.53a3,3,0,0,0-1.44-2.45V.79h6.19v.29a3,3,0,0,0-1.44,2.45V36.36h10.3A2.4,2.4,0,0,0,100.87,35h.36l-.72,4.54H83.38Z"/><path d="M128.45.79v.29c-.86.14-1.51,1.22-2,2.09l-12.1,22.9V48.46a3,3,0,0,0,1.44,2.45v.29h-6.19v-.29A3,3,0,0,0,111,48.46V26.07L98.93,3.17c-.5-.86-1.15-1.94-2-2.09V.79h6v.29c-.94.5-.86,1.22-.36,2.09l10.08,19.08L122.76,3.17c.5-.94.58-1.58-.36-2.09V.79Z"/><path d="M144.29,50.91a3,3,0,0,0,1.44-2.45V3.53a3,3,0,0,0-1.44-2.45V.79h6.19v.29A3,3,0,0,0,149,3.53V48h16.49A2.4,2.4,0,0,0,168,46.66h.36l-.72,4.54H144.29Z"/><path class="cls-1" d="M157.68,25.63a15.2,15.2,0,0,1,15-15.41c8.21,0,14.83,6.91,14.83,15.41s-6.62,15.48-14.83,15.48A15.22,15.22,0,0,1,157.68,25.63Zm26.71,0a11.82,11.82,0,1,0-23.62,0A12.1,12.1,0,0,0,172.66,38C179.14,38,184.39,32.47,184.39,25.63Z"/><path d="M219,.79v.29a3.77,3.77,0,0,0-1.87,2.38L205,48.53a1.89,1.89,0,0,0,.94,2.38v.29h-6.77v-.29a2,2,0,0,0,.94-2.38L188,3.46a3.59,3.59,0,0,0-1.87-2.38V.79h6.12v.29a1.86,1.86,0,0,0-.94,2.38l11.23,41.76L213.7,3.46a1.89,1.89,0,0,0-.94-2.38V.79Z"/><path class="cls-1" d="M244.8,46.66l-.72,4.54H221.33v-.29a3,3,0,0,0,1.44-2.45V3.53a3,3,0,0,0-1.44-2.45V.79h20.74l.72,4.54h-.43A2.53,2.53,0,0,0,239.9,4H226.08V15.34H239a3.09,3.09,0,0,0,2.45-1.3h.29V19.8h-.29a3.09,3.09,0,0,0-2.45-1.3H226.08V48H242a2.52,2.52,0,0,0,2.45-1.37Z"/><path d="M248.11,50.91a3,3,0,0,0,1.44-2.45V3.53a3,3,0,0,0-1.44-2.45V.79h6.19v.29a3,3,0,0,0-1.44,2.45V48h12.38a2.4,2.4,0,0,0,2.45-1.37h.36l-.72,4.54H248.11Z"/><path d="M295.27.79v.29c-.86.14-1.51,1.22-2,2.09l-12.1,22.9V48.46a3,3,0,0,0,1.44,2.45v.29h-6.19v-.29a3,3,0,0,0,1.44-2.45V26.07l-12.1-22.9c-.5-.86-1.15-1.94-2-2.09V.79h6v.29c-.94.5-.86,1.22-.36,2.09L279.5,22.25,289.58,3.17c.5-.94.58-1.58-.36-2.09V.79Z"/><path d="M311.11,50.91a3,3,0,0,0,1.44-2.45V3.53a3,3,0,0,0-1.44-2.45V.79h6.19v.29a3,3,0,0,0-1.44,2.45V48h16.49a2.4,2.4,0,0,0,2.45-1.37h.36l-.72,4.54H311.11Z"/><path class="cls-1" d="M324.5,25.63a15.2,15.2,0,0,1,15-15.41c8.21,0,14.83,6.91,14.83,15.41s-6.62,15.48-14.83,15.48A15.22,15.22,0,0,1,324.5,25.63Zm26.71,0a11.82,11.82,0,1,0-23.62,0A12.1,12.1,0,0,0,339.48,38C346,38,351.22,32.47,351.22,25.63Z"/><path d="M358.77,50.91a3,3,0,0,0,1.44-2.45V3.53a3,3,0,0,0-1.44-2.45V.79H365v.29a3,3,0,0,0-1.44,2.45V48h22a2.4,2.4,0,0,0,2.45-1.37h.36l-.72,4.54h-28.8Z"/><path d="M371.81,39.24a3,3,0,0,0,1.44-2.45V3.53a3,3,0,0,0-1.44-2.45V.79H378v.29a3,3,0,0,0-1.44,2.45V36.36h10.3A2.4,2.4,0,0,0,389.3,35h.36l-.72,4.54H371.81Z"/><path d="M416.88.79v.29c-.86.14-1.51,1.22-2,2.09l-12.1,22.9V48.46a3,3,0,0,0,1.44,2.45v.29H398v-.29a3,3,0,0,0,1.44-2.45V26.07l-12.1-22.9c-.5-.86-1.15-1.94-2-2.09V.79h6v.29c-.94.5-.86,1.22-.36,2.09l10.08,19.08L411.19,3.17c.5-.94.58-1.58-.36-2.09V.79Z"/><path d="M432.72,50.91a3,3,0,0,0,1.44-2.45V3.53a3,3,0,0,0-1.44-2.45V.79h6.19v.29a3,3,0,0,0-1.44,2.45V48h22a2.4,2.4,0,0,0,2.45-1.37h.36l-.72,4.54h-28.8Z"/><path class="cls-1" d="M476.78,50.91v.29h-6.19v-.29a2.13,2.13,0,0,0,1.08-2.38l-3.53-16.71h-15l-1.66,7.71a2,2,0,0,0,1.08,2.38v.29h-6.19v-.29a4,4,0,0,0,1.8-2.38l7.63-36.08a2.09,2.09,0,0,0-1.08-2.38V.79h12v.29a2.13,2.13,0,0,0-1.08,2.38L475,48.53A4,4,0,0,0,476.78,50.91ZM467.5,28.66,462.31,4H459l-5.26,24.63Z"/><path d="M479.59,50.91A3,3,0,0,0,481,48.46V3.53a3,3,0,0,0-1.44-2.45V.79h12.17c7.49,0,27.58,1.08,27.58,25.13,0,19.87-13.68,25.27-24,25.27H479.59Zm36.36-25c0-17.35-11-22-23.91-22h-7.7V48H494C498.74,48,516,47.6,516,25.92Z"/><path d="M548.57.79v.29c-.86.14-1.51,1.22-2,2.09l-12.1,22.9V48.46a3,3,0,0,0,1.44,2.45v.29H529.7v-.29a3,3,0,0,0,1.44-2.45V26.07L519,3.17c-.5-.86-1.15-1.94-2-2.09V.79h6v.29c-.94.5-.86,1.22-.36,2.09L532.8,22.25,542.88,3.17c.5-.94.58-1.58-.36-2.09V.79Z"/></g></g></svg>